<?xml version="1.0" encoding="UTF-8"?>
<svg xmlns="http://www.w3.org/2000/svg" xmlns:xlink="http://www.w3.org/1999/xlink" viewBox="0 0 1024 1024">
  <defs>
    <style>
      .cls-1, .cls-2 {
        fill: none;
      }

      .cls-2 {
        stroke: #fff;
        stroke-miterlimit: 10;
        stroke-width: 118px;
      }

      .cls-3 {
        fill: #e08826;
      }

      .cls-4 {
        fill: #fff;
      }

      .cls-5 {
        fill: #e08926;
      }

      .cls-6 {
        clip-path: url(#clippath);
      }
    </style>
    <clipPath id="clippath">
      <path class="cls-1" d="M787.87,459.16c-19.9-54.54-48.17-100.99-84.81-139.34-36.66-38.32-80.89-68.03-132.72-89.1-51.83-21.05-109.69-31.6-173.56-31.6s-121.47,10.55-172.77,31.6c-5.65,2.32-10.88,5.14-16.35,7.68-26.23,31.05-47.4,66.86-62.84,107.98-18.78,49.86-28.16,105.4-28.16,166.6s9.38,116.51,28.16,165.88c18.72,49.37,45.4,91.58,79.97,126.61,34.53,35.07,76.01,61.99,124.4,80.73,48.37,18.74,102.69,28.12,162.91,28.12s114.78-9.38,163.65-28.12c44.13-16.92,82.1-40.88,114.57-71.12,18.08-52.06,27.4-109.81,27.4-173.65s-9.95-127.71-29.85-182.26Z"/>
    </clipPath>
  </defs>
  <g id="Layer_1" data-name="Layer 1">
    <g>
      <rect class="cls-5" x="2" y="2" width="1020" height="1020"/>
      <path class="cls-3" d="M1020,4v1016H4V4h1016M1024,0H0v1024h1024V0h0Z"/>
    </g>
  </g>
  <g id="Layer_2" data-name="Layer 2">
    <g>
      <path class="cls-4" d="M880.86,346.37c-18.76-49.86-45.42-92.32-79.97-127.37-34.57-35.03-76.27-62.19-125.14-81.45-48.87-19.24-103.43-28.89-163.65-28.89s-114.54,9.64-162.91,28.89c-48.39,19.26-89.87,46.42-124.4,81.45-6.06,6.14-11.56,12.8-17.13,19.39,5.48-2.53,10.7-5.35,16.35-7.68,51.3-21.05,108.9-31.6,172.77-31.6s121.73,10.55,173.56,31.6c51.83,21.07,96.06,50.78,132.72,89.1,36.64,38.35,64.91,84.8,84.81,139.34,19.9,54.54,29.85,115.3,29.85,182.26s-9.32,121.59-27.4,173.65c3.49-3.24,7.22-6.21,10.57-9.61,34.55-35.03,61.21-77.24,79.97-126.61,18.76-49.37,28.14-104.65,28.14-165.88s-9.38-116.75-28.14-166.6Z"/>
      <g class="cls-6">
        <g>
          <line class="cls-2" x1="-25.16" y1="379.41" x2="1010.84" y2="379.41"/>
          <line class="cls-2" x1="-20.46" y1="624.14" x2="1015.53" y2="624.14"/>
          <line class="cls-2" x1="-15.77" y1="868.87" x2="1020.22" y2="868.87"/>
        </g>
      </g>
    </g>
  </g>
</svg>